<svg width="310" height="116" viewBox="0 0 310 116" fill="none" xmlns="http://www.w3.org/2000/svg">
<path d="M211.781 22.1676C211.038 22.5444 210.389 23.0884 209.885 23.7579C209.376 24.376 209.085 25.1489 209.059 25.9539C209.06 26.3313 209.155 26.7021 209.335 27.0324C209.515 27.3626 209.774 27.6416 210.088 27.8437C210.732 28.262 211.466 28.5175 212.227 28.589C212.945 28.6557 213.665 28.4929 214.287 28.1232C214.911 27.7318 215.435 27.1958 215.815 26.5594C216.195 25.9332 216.431 25.2281 216.504 24.4966C216.522 23.7545 216.4 23.0158 216.143 22.3206C215.678 20.8537 214.841 19.5366 213.716 18.501C213.168 18.0175 212.536 17.6408 211.853 17.3898C211.182 17.1488 210.472 17.0404 209.76 17.0704C208.247 17.1744 206.776 17.6297 205.464 18.4013C204.061 19.1759 202.752 20.1114 201.56 21.1894C199.127 23.3387 196.87 25.9872 193.997 28.0234C191.142 30.1033 187.82 31.4255 184.333 31.8696C180.9 32.2201 177.433 31.8624 174.139 30.8182C172.471 30.4135 170.868 29.7728 169.376 28.915C168.623 28.458 167.985 27.8292 167.513 27.0784C167.074 26.3157 166.909 25.422 167.048 24.5499L167.225 24.3435L167.08 24.5698C167.052 25.4048 167.307 26.2245 167.802 26.8921C168.304 27.5306 168.947 28.0411 169.678 28.3827C171.176 29.0636 172.759 29.5338 174.382 29.7801C177.566 30.5372 180.861 30.6817 184.097 30.206C187.263 29.6508 190.252 28.3367 192.816 26.3731C195.44 24.47 197.578 21.9147 200.163 19.579C201.468 18.3904 202.906 17.3609 204.447 16.5114C206.051 15.587 207.851 15.0688 209.695 15.0009C211.642 14.9711 213.524 15.711 214.943 17.0638C216.59 18.7089 217.651 20.8623 217.961 23.1857L218 23.5184C218 23.6382 218 23.7712 218 23.9043C218.001 24.1557 217.986 24.4069 217.954 24.6563C217.819 25.6169 217.456 26.53 216.898 27.318C216.354 28.1078 215.629 28.7518 214.785 29.1945C213.921 29.6373 212.938 29.7844 211.984 29.6138C211.081 29.4479 210.232 29.0594 209.511 28.4825C209.138 28.1813 208.844 27.7908 208.656 27.3459C208.468 26.9011 208.392 26.4159 208.435 25.9339C208.553 25.0321 208.964 24.196 209.603 23.5584C210.214 22.9306 210.959 22.4545 211.781 22.1676Z" fill="#7C8188"/>
<path d="M162 13.0269C163.573 11.3084 165.331 9.78046 167.241 8.47284C169.215 7.14623 171.469 6.32421 173.814 6.07554C174.995 5.94974 176.187 5.98117 177.361 6.16904C178.564 6.36746 179.723 6.78583 180.783 7.40437C181.855 8.04567 182.777 8.92105 183.484 9.96869C184.191 11.0163 184.666 12.2108 184.875 13.4676C185.073 14.7143 185.035 15.9884 184.765 17.2204C184.512 18.4629 184.012 19.6381 183.297 20.6727C182.554 21.7713 181.452 22.5602 180.192 22.8964C178.928 23.1518 177.616 22.9314 176.497 22.2753C175.38 21.7248 174.435 20.8645 173.769 19.7913C173.44 19.2253 173.249 18.5863 173.21 17.9282C173.169 17.298 173.246 16.6655 173.438 16.0652C173.616 15.4574 173.946 14.9081 174.395 14.4723C174.844 14.0364 175.396 13.7292 175.997 13.5811C176.583 13.4652 177.188 13.502 177.757 13.688C178.303 13.8787 178.82 14.1509 179.29 14.4959C178.332 13.8926 177.183 13.6985 176.088 13.9551C175.587 14.1246 175.139 14.4279 174.79 14.8339C174.441 15.2399 174.203 15.7339 174.1 16.2655C173.971 16.789 173.943 17.3334 174.016 17.8681C174.082 18.3788 174.264 18.8662 174.548 19.2905C175.17 20.1683 176.009 20.8598 176.977 21.2937C177.878 21.7674 178.911 21.9066 179.9 21.6877C180.856 21.3983 181.679 20.7656 182.219 19.9048C183.397 18.0918 183.861 15.8864 183.518 13.7348C183.352 12.6763 182.962 11.6681 182.376 10.781C181.79 9.89386 181.023 9.14933 180.127 8.59968C178.238 7.51287 176.075 7.03374 173.918 7.22414C171.706 7.36178 169.551 8.00506 167.612 9.10718C165.626 10.23 163.747 11.5423 162 13.0269Z" fill="#7C8188"/>
<path d="M193.995 17.5635C194.063 19.4746 193.421 21.3386 192.205 22.7631C191.632 23.4988 190.988 24.1702 190.284 24.7667C189.935 25.0708 189.571 25.3554 189.194 25.6195C188.812 25.9053 188.408 26.1558 187.985 26.3682C186.329 27.1691 184.56 27.6864 182.748 27.9004C180.929 28.0963 179.092 28.0028 177.299 27.6231C173.754 26.7986 170.449 25.0913 167.664 22.6452C164.886 20.2894 162.615 17.3431 161 14C163.047 16.9623 165.526 19.5685 168.344 21.7232C171.093 23.8705 174.244 25.3826 177.59 26.1602C180.923 26.901 184.389 26.6022 187.563 25.3006C187.941 25.1398 188.306 24.9449 188.652 24.7182C189.016 24.4894 189.379 24.2467 189.729 24.0249C190.439 23.5206 191.102 22.9473 191.71 22.3125C192.986 21.0654 193.796 19.3815 193.995 17.5635Z" fill="#7C8188"/>
<path d="M100.256 22.1609C101.063 22.4495 101.794 22.9206 102.395 23.5384C103.034 24.1761 103.445 25.0122 103.562 25.914C103.605 26.396 103.529 26.8812 103.341 27.326C103.153 27.7709 102.86 28.1614 102.486 28.4626C101.766 29.0395 100.917 29.428 100.014 29.5939C99.0598 29.7645 98.0772 29.6174 97.2127 29.1747C96.3693 28.7319 95.6445 28.0879 95.1006 27.2981C94.5424 26.5101 94.1801 25.5969 94.0446 24.6363C94.0117 24.3872 93.9985 24.1358 94.0052 23.8845C93.9983 23.7559 93.9983 23.627 94.0052 23.4985V23.1658C94.3295 20.8443 95.4047 18.698 97.0618 17.0638C98.4806 15.711 100.362 14.9711 102.309 15.0009C104.153 15.0688 105.953 15.587 107.557 16.5114C109.097 17.3648 110.536 18.394 111.846 19.5791C114.424 21.9147 116.576 24.4701 119.186 26.3732C121.75 28.3357 124.739 29.6497 127.903 30.2061C131.139 30.6818 134.434 30.5373 137.618 29.7802C139.241 29.5339 140.823 29.0637 142.321 28.3827C143.052 28.0411 143.694 27.5307 144.197 26.8922C144.692 26.2245 144.947 25.4049 144.918 24.5698L144.774 24.3436L144.951 24.5499C145.091 25.4213 144.929 26.315 144.492 27.0785C144.018 27.8295 143.378 28.4583 142.622 28.9151C141.133 29.7718 139.532 30.4124 137.867 30.8183C134.572 31.8623 131.102 32.22 127.667 31.8697C124.205 31.4189 120.907 30.1017 118.071 28.0368C115.198 26.0006 112.942 23.3787 110.508 21.2028C109.33 20.1105 108.031 19.1594 106.638 18.368C105.326 17.5964 103.856 17.1411 102.342 17.0371C101.631 17.0071 100.921 17.1155 100.25 17.3565C99.5677 17.6057 98.938 17.9827 98.3934 18.4678C97.2645 19.5012 96.425 20.8189 95.9599 22.2874C95.7034 22.9826 95.5809 23.7213 95.5991 24.4634C95.6749 25.1953 95.9126 25.9004 96.2944 26.5262C96.6715 27.1632 97.1932 27.6993 97.8162 28.09C98.4379 28.4597 99.1581 28.6225 99.8758 28.5558C100.638 28.4874 101.372 28.2316 102.014 27.8105C102.318 27.607 102.569 27.3306 102.743 27.0056C102.916 26.6806 103.009 26.3171 103.011 25.9473C102.985 25.1423 102.694 24.3694 102.185 23.7513C101.671 23.0778 101.011 22.5336 100.256 22.1609Z" fill="#7C8188"/>
<path d="M151 13.0603C149.186 11.5664 147.232 10.245 145.165 9.11383C143.139 8.01087 140.888 7.36753 138.577 7.23079C136.323 7.04038 134.064 7.51952 132.09 8.60633C131.155 9.15598 130.353 9.90051 129.741 10.7876C129.129 11.6747 128.722 12.683 128.548 13.7414C128.189 15.8909 128.674 18.0943 129.905 19.9048C130.467 20.7694 131.327 21.405 132.328 21.6944C133.361 21.9133 134.44 21.7741 135.381 21.3004C136.392 20.8648 137.267 20.1737 137.918 19.2971C138.214 18.8696 138.404 18.3804 138.475 17.8681C138.551 17.3333 138.521 16.7891 138.387 16.2656C138.28 15.7339 138.031 15.2398 137.666 14.8339C137.301 14.4279 136.833 14.1246 136.31 13.9551C135.166 13.6985 133.966 13.8926 132.965 14.496C133.456 14.151 133.996 13.8787 134.567 13.6879C135.161 13.502 135.793 13.4653 136.405 13.5812C137.033 13.7286 137.61 14.0356 138.079 14.4715C138.549 14.9075 138.893 15.457 139.079 16.0652C139.278 16.6656 139.358 17.298 139.316 17.9283C139.276 18.5863 139.076 19.2252 138.733 19.7913C138.037 20.8645 137.05 21.7249 135.883 22.2754C134.713 22.9314 133.343 23.1518 132.022 22.8963C130.706 22.5602 129.556 21.7714 128.779 20.6727C128.032 19.6382 127.51 18.4628 127.246 17.2204C126.963 15.9883 126.924 14.7143 127.13 13.4676C127.349 12.2107 127.845 11.0164 128.583 9.96874C129.322 8.92109 130.285 8.04572 131.405 7.40441C132.512 6.78587 133.723 6.3675 134.981 6.16908C136.208 5.98115 137.456 5.94972 138.692 6.07558C141.14 6.32428 143.492 7.14625 145.552 8.47281C147.541 9.7909 149.369 11.3302 151 13.0603Z" fill="#7C8188"/>
<path d="M118.003 17.5913C118.218 19.3989 119.034 21.0687 120.307 22.3056C120.918 22.9364 121.58 23.5095 122.287 24.018C122.644 24.2676 123 24.5103 123.363 24.7113C123.711 24.9353 124.075 25.13 124.452 25.2936C127.623 26.5953 131.088 26.8941 134.419 26.1533C137.763 25.3757 140.912 23.8635 143.66 21.7163C146.476 19.5637 148.953 16.9599 151 14C149.386 17.3431 147.116 20.2895 144.34 22.6453C141.556 25.0914 138.253 26.7986 134.71 27.6231C132.918 28.0028 131.082 28.0963 129.264 27.9004C127.453 27.6864 125.685 27.1692 124.03 26.3683C123.607 26.1559 123.203 25.9053 122.822 25.6195C122.445 25.3554 122.081 25.0708 121.733 24.7667C121.03 24.1684 120.386 23.4971 119.812 22.7631C118.596 21.3488 117.948 19.4957 118.003 17.5913Z" fill="#7C8188"/>
<path fill-rule="evenodd" clip-rule="evenodd" d="M156.497 5C156.497 5 154.634 12.5388 150 13.5C154.634 14.4938 156.497 22 156.497 22C156.497 22 158.36 14.4612 163 13.5C158.36 12.5388 156.497 5 156.497 5Z" fill="#7C8188"/>
<path d="M156.5 26L156.101 24.3722C156.101 24.2749 153.63 14.6441 147.831 13.3924L146 12.9967L147.831 12.6076C153.637 11.3624 156.074 1.71863 156.101 1.62135L156.5 0L156.899 1.62135C156.899 1.71863 159.376 11.3494 165.169 12.6076L167 12.9967L165.169 13.3924C159.37 14.6311 156.926 24.2749 156.899 24.3722L156.5 26ZM149.249 13.0292C153.411 14.7802 155.654 20.2669 156.5 22.8546C157.346 20.2604 159.589 14.7802 163.751 13.0292C159.589 11.2846 157.346 5.79144 156.5 3.20376C155.654 5.73307 153.411 11.2521 149.249 12.9967V13.0292Z" fill="#7C8188"/>
<path d="M100.247 92.8517C100.987 92.4736 101.634 91.9324 102.142 91.2677C102.645 90.6469 102.933 89.875 102.961 89.0714C102.96 88.7013 102.868 88.3374 102.695 88.0122C102.521 87.6869 102.27 87.4106 101.965 87.208C101.323 86.7846 100.589 86.5265 99.8273 86.4559C99.1092 86.3911 98.3892 86.5564 97.7685 86.9284C97.1437 87.3164 96.6215 87.8533 96.2473 88.4924C95.8658 89.1159 95.6282 89.8189 95.5523 90.5489C95.5341 91.2932 95.6565 92.0343 95.9129 92.7319C96.381 94.1992 97.2197 95.5163 98.3455 96.5521C98.8899 97.0373 99.5194 97.4143 100.201 97.6635C100.872 97.9025 101.582 98.0086 102.293 97.9763C103.806 97.8747 105.276 97.4192 106.587 96.6452C107.982 95.8583 109.281 94.9066 110.456 93.81C112.888 91.6604 115.144 89.0182 118.016 86.975C120.872 84.8962 124.194 83.574 127.68 83.1282C131.112 82.7817 134.577 83.1393 137.87 84.1797C139.534 84.5883 141.134 85.2312 142.623 86.0898C143.379 86.5449 144.02 87.1742 144.492 87.9267C144.929 88.6879 145.091 89.5797 144.951 90.4491L144.774 90.6554L144.925 90.4291C144.952 89.5941 144.698 88.7747 144.203 88.1064C143.703 87.4679 143.06 86.9593 142.328 86.6223C140.83 85.9421 139.249 85.4697 137.627 85.218C134.444 84.4642 131.151 84.3198 127.916 84.792C124.752 85.3508 121.765 86.6672 119.203 88.6321C116.58 90.5289 114.442 93.0846 111.866 95.4207C110.553 96.6108 109.107 97.6406 107.558 98.4888C105.954 99.4134 104.155 99.9316 102.312 99.9996C101.346 100.01 100.386 99.8313 99.4863 99.4738C98.6032 99.1162 97.7921 98.5974 97.0931 97.9431C95.7514 96.6543 94.7908 95.0108 94.3196 93.1978C94.1952 92.7617 94.1032 92.3168 94.0442 91.8667L94.0049 91.534C93.9984 91.4054 93.9984 91.2765 94.0049 91.1479C94.0013 90.8944 94.0145 90.6409 94.0442 90.3892C94.1839 89.4296 94.5456 88.5172 95.0999 87.727C95.6437 86.939 96.3683 86.2972 97.2111 85.8569C98.0754 85.4141 99.0575 85.267 100.011 85.4376C100.914 85.5997 101.763 85.986 102.483 86.5623C102.856 86.8639 103.149 87.2547 103.336 87.6995C103.524 88.1443 103.6 88.6294 103.558 89.1114C103.444 90.0161 103.033 90.8554 102.391 91.494C101.787 92.1052 101.054 92.5694 100.247 92.8517Z" fill="#7C8188"/>
<path d="M151 102.977C149.359 104.695 147.524 106.224 145.531 107.533C143.47 108.851 141.123 109.672 138.679 109.927C137.444 110.051 136.198 110.017 134.972 109.827C133.715 109.634 132.505 109.219 131.4 108.6C130.281 107.958 129.319 107.082 128.581 106.035C127.844 104.987 127.348 103.793 127.13 102.537C126.924 101.291 126.963 100.019 127.245 98.788C127.509 97.547 128.031 96.373 128.777 95.3396C129.519 94.2209 130.674 93.4291 131.997 93.1305C133.32 92.832 134.71 93.05 135.873 93.7388C137.039 94.2902 138.027 95.1492 138.726 96.22C139.063 96.7881 139.263 97.4249 139.309 98.081C139.349 98.7132 139.267 99.347 139.065 99.9486C138.88 100.555 138.536 101.104 138.067 101.538C137.598 101.973 137.021 102.278 136.395 102.423C135.783 102.538 135.153 102.503 134.558 102.323C133.986 102.133 133.447 101.859 132.959 101.509C133.957 102.114 135.156 102.31 136.3 102.056C136.821 101.885 137.287 101.581 137.651 101.176C138.015 100.771 138.264 100.278 138.374 99.7485C138.507 99.2233 138.539 98.678 138.469 98.141C138.392 97.6318 138.2 97.1462 137.906 96.7203C137.261 95.84 136.385 95.1484 135.371 94.7192C134.431 94.247 133.355 94.1058 132.322 94.3191C131.324 94.6109 130.465 95.2451 129.902 96.1066C128.674 97.9156 128.189 100.116 128.547 102.263C128.72 103.32 129.127 104.327 129.738 105.214C130.349 106.1 131.15 106.843 132.084 107.392C134.056 108.477 136.312 108.958 138.564 108.773C140.872 108.634 143.12 107.992 145.144 106.892C147.219 105.774 149.18 104.463 151 102.977Z" fill="#7C8188"/>
<path d="M118.005 97.6905C117.937 95.9156 118.579 94.1844 119.795 92.8615C120.371 92.1814 121.015 91.5581 121.716 91.0007C122.066 90.7174 122.43 90.4599 122.806 90.2088C123.189 89.9456 123.593 89.7131 124.015 89.5134C125.671 88.7687 127.439 88.2902 129.252 88.0968C131.071 87.9084 132.909 87.9953 134.701 88.3544C138.248 89.1146 141.554 90.7008 144.336 92.9774C147.115 95.1615 149.386 97.896 151 101C148.951 98.2503 146.473 95.8301 143.656 93.8273C140.905 91.8356 137.755 90.4315 134.41 89.7065C131.077 89.0185 127.611 89.2961 124.437 90.5049C124.059 90.6566 123.694 90.8397 123.348 91.0522C122.984 91.2582 122.628 91.49 122.271 91.6961C121.56 92.1624 120.896 92.6951 120.29 93.2865C119.011 94.4399 118.2 96.0029 118.005 97.6905Z" fill="#7C8188"/>
<path d="M211.743 92.8386C210.938 92.5509 210.207 92.0822 209.605 91.4676C208.965 90.8275 208.555 89.989 208.438 89.085C208.396 88.6031 208.473 88.1183 208.66 87.6736C208.848 87.2289 209.141 86.8381 209.513 86.5361C210.234 85.9611 211.083 85.5747 211.986 85.4114C212.939 85.2373 213.923 85.3846 214.786 85.8306C215.629 86.2709 216.354 86.9128 216.898 87.7008C217.455 88.4895 217.817 89.4025 217.954 90.3629C217.986 90.6144 218.001 90.8678 218 91.1215C218 91.2479 218 91.3811 218 91.5075L217.961 91.8403C217.633 94.1596 216.561 96.3047 214.911 97.9431C214.21 98.5989 213.397 99.1179 212.511 99.4738C211.61 99.8313 210.651 100.01 209.684 99.9996C207.841 99.9316 206.041 99.4134 204.437 98.4888C202.897 97.6392 201.459 96.6096 200.154 95.4208C197.57 93.0848 195.419 90.5292 192.816 88.6325C190.25 86.6675 187.26 85.3511 184.093 84.7924C180.857 84.3201 177.563 84.4646 174.38 85.2183C172.758 85.471 171.177 85.941 169.678 86.616C168.946 86.9577 168.304 87.4682 167.802 88.1067C167.308 88.775 167.053 89.5944 167.08 90.4294L167.225 90.6557L167.048 90.4493C166.909 89.5792 167.074 88.6874 167.513 87.927C167.983 87.1748 168.621 86.5455 169.376 86.0902C170.867 85.231 172.47 84.5881 174.137 84.1802C177.431 83.1391 180.897 82.7814 184.329 83.1286C187.814 83.5758 191.135 84.8979 193.99 86.9753C196.862 89.0185 199.118 91.634 201.551 93.8102C202.727 94.9068 204.025 95.8584 205.421 96.6453C206.733 97.4192 208.203 97.8748 209.717 97.9764C210.427 98.0087 211.137 97.9025 211.809 97.6636C212.492 97.4126 213.123 97.0358 213.671 96.5522C214.793 95.5142 215.63 94.1977 216.098 92.7321C216.354 92.0345 216.477 91.2935 216.459 90.5492C216.385 89.8197 216.15 89.1166 215.77 88.4927C215.393 87.8532 214.869 87.3164 214.242 86.9288C213.621 86.5567 212.901 86.3914 212.183 86.4562C211.42 86.5268 210.686 86.7849 210.045 87.2082C209.741 87.4126 209.491 87.6893 209.318 88.0141C209.144 88.339 209.051 88.7021 209.048 89.0717C209.078 89.876 209.369 90.6478 209.874 91.268C210.374 91.9263 211.013 92.4629 211.743 92.8386Z" fill="#7C8188"/>
<path d="M162 102.944C163.738 104.439 165.61 105.761 167.592 106.892C169.536 107.989 171.692 108.632 173.906 108.773C176.066 108.958 178.23 108.477 180.122 107.393C181.018 106.844 181.787 106.1 182.373 105.214C182.959 104.328 183.35 103.32 183.516 102.263C183.859 100.116 183.394 97.9157 182.216 96.1067C181.675 95.2452 180.852 94.6109 179.894 94.3191C178.905 94.1057 177.875 94.247 176.975 94.7193C176.002 95.1498 175.159 95.841 174.536 96.7204C174.254 97.1454 174.072 97.6317 174.003 98.1411C173.93 98.6753 173.959 99.2189 174.088 99.7419C174.191 100.273 174.43 100.767 174.779 101.174C175.129 101.58 175.576 101.885 176.077 102.056C177.175 102.31 178.325 102.114 179.283 101.509C178.815 101.859 178.297 102.133 177.749 102.323C177.178 102.503 176.573 102.538 175.986 102.423C175.385 102.276 174.832 101.969 174.382 101.534C173.933 101.098 173.602 100.55 173.425 99.942C173.233 99.3424 173.156 98.7106 173.197 98.081C173.235 97.4237 173.427 96.7855 173.756 96.2201C174.423 95.1481 175.369 94.2886 176.487 93.7388C177.603 93.05 178.936 92.832 180.206 93.1305C181.475 93.4291 182.583 94.2209 183.295 95.3396C184.011 96.373 184.512 97.5471 184.765 98.7881C185.035 100.019 185.073 101.291 184.875 102.537C184.669 103.794 184.195 104.989 183.487 106.037C182.779 107.085 181.854 107.96 180.779 108.6C179.718 109.219 178.557 109.634 177.352 109.827C176.178 110.017 174.984 110.051 173.802 109.927C171.455 109.673 169.2 108.852 167.221 107.533C165.318 106.21 163.566 104.671 162 102.944Z" fill="#7C8188"/>
<path d="M193.996 97.6647C193.788 95.9859 192.971 94.4351 191.693 93.2928C191.087 92.7017 190.424 92.1691 189.713 91.7025C189.363 91.4707 189 91.2389 188.637 91.0586C188.29 90.8461 187.926 90.663 187.548 90.5114C184.376 89.3025 180.912 89.025 177.581 89.713C174.238 90.4379 171.089 91.8421 168.34 93.8337C165.525 95.8346 163.049 98.2526 161 101C162.613 97.896 164.883 95.1614 167.66 92.9773C170.441 90.7007 173.745 89.1146 177.29 88.3544C179.081 87.9953 180.918 87.9084 182.736 88.0968C184.548 88.2895 186.315 88.7678 187.97 89.5133C188.391 89.713 188.795 89.9456 189.178 90.2088C189.554 90.4599 189.917 90.7174 190.267 91.0007C190.97 91.558 191.616 92.1813 192.194 92.8615C193.408 94.1756 194.054 95.8968 193.996 97.6647Z" fill="#7C8188"/>
<path fill-rule="evenodd" clip-rule="evenodd" d="M156.497 111C156.497 111 158.36 103.461 163 102.5C158.36 101.513 156.497 94 156.497 94C156.497 94 154.634 101.539 150 102.5C154.634 103.461 156.497 111 156.497 111Z" fill="#7C8188"/>
<path d="M156.5 89L156.899 90.6837C156.899 90.7847 159.37 100.786 165.169 102.093L167 102.497L165.169 102.901C159.37 104.194 156.926 114.209 156.899 114.31L156.5 116L156.101 114.31C156.101 114.209 153.63 104.207 147.831 102.901L146 102.497L147.831 102.093C153.637 100.799 156.074 90.7847 156.101 90.6837L156.5 89ZM163.751 102.47C159.589 100.658 157.346 94.9536 156.5 92.2664C155.654 94.9603 153.411 100.658 149.249 102.47C153.411 104.281 155.654 109.986 156.5 112.673C157.359 110.04 159.589 104.308 163.751 102.497V102.47Z" fill="#7C8188"/>
<path d="M29 32.5025L60.7516 32.2589L92.5033 32.1168L156 32L219.503 32.1168L251.255 32.2589L283 32.5025L251.255 32.7462L219.503 32.8883L156 33L92.5033 32.8832L60.7516 32.7462L29 32.5025Z" fill="#7C8188"/>
<path d="M29 83.4975L60.7516 83.2538L92.5033 83.1167L156 83L219.503 83.1167L251.255 83.2538L283 83.4975L251.255 83.7462L219.503 83.8832L156 84L92.5033 83.8832L60.7516 83.7411L29 83.4975Z" fill="#7C8188"/>
<path d="M15.8327 61.2529C19.4403 60.7049 18.0306 55.9409 15.3329 55.1563C9.52102 53.4686 4.22176 66.1975 0.0566734 57.5289C0.261724 57.9462 -0.141969 58.6374 0.0566734 59.0609C2.5365 64.2234 5.92623 61.5518 9.3416 58.874C11.4946 57.1615 17.6397 54.7266 17.9025 59.4967C17.9025 58.9923 17.9025 58.488 17.9025 57.9898C17.7359 59.1418 16.9477 59.5652 15.8263 59.7334C15.7366 59.7334 15.8968 61.2592 15.8263 61.2716L15.8327 61.2529Z" fill="#7C8188"/>
<path d="M293.287 59.6878C292.103 59.5171 291.257 59.0557 291.095 57.9182C291.095 58.4237 291.095 58.9357 291.095 59.4476C291.379 54.5876 297.861 57.1472 300.135 58.8156C303.776 61.5016 307.294 64.2949 309.94 59.0052C310.15 58.5754 309.724 57.8739 309.94 57.4505C305.819 65.6664 299.851 54.221 293.808 55.0426C290.547 55.485 289.816 60.7305 293.28 61.2298C293.206 61.2298 293.375 59.6877 293.28 59.6688L293.287 59.6878Z" fill="#7C8188"/>
<g filter="url(#filter0_d)">
<path d="M73.064 71H68.96V47.402H60.828V43.868H81.196V47.402H73.064V71ZM88.9281 42.12V49.834C88.9281 50.4927 88.9028 51.1387 88.8521 51.772C88.8014 52.38 88.7508 52.8867 88.7001 53.292H88.9661C89.6248 52.228 90.4988 51.4427 91.5881 50.936C92.7028 50.4293 93.9061 50.176 95.1981 50.176C97.6048 50.176 99.4414 50.7713 100.708 51.962C102 53.1527 102.646 55.0527 102.646 57.662V71H98.6561V58.232C98.6561 55.04 97.2501 53.444 94.4381 53.444C92.3354 53.444 90.8914 54.0773 90.1061 55.344C89.3208 56.5853 88.9281 58.3713 88.9281 60.702V71H84.9001V42.12H88.9281ZM116.778 50.138C119.336 50.138 121.249 50.708 122.516 51.848C123.808 52.9627 124.454 54.7233 124.454 57.13V71H121.604L120.806 68.15H120.654C119.767 69.2647 118.83 70.088 117.842 70.62C116.879 71.1267 115.536 71.38 113.814 71.38C111.964 71.38 110.432 70.886 109.216 69.898C108 68.8847 107.392 67.314 107.392 65.186C107.392 63.1087 108.177 61.5253 109.748 60.436C111.318 59.3467 113.738 58.7513 117.006 58.65L120.502 58.536V57.396C120.502 55.9013 120.16 54.85 119.476 54.242C118.792 53.6087 117.829 53.292 116.588 53.292C115.549 53.292 114.548 53.444 113.586 53.748C112.623 54.052 111.698 54.4193 110.812 54.85L109.52 51.924C110.482 51.4173 111.584 50.9993 112.826 50.67C114.092 50.3153 115.41 50.138 116.778 50.138ZM120.464 61.158L117.728 61.234C115.397 61.3353 113.776 61.728 112.864 62.412C111.977 63.0707 111.534 64.008 111.534 65.224C111.534 66.288 111.85 67.0607 112.484 67.542C113.117 68.0233 113.94 68.264 114.954 68.264C116.524 68.264 117.829 67.8207 118.868 66.934C119.932 66.0473 120.464 64.7173 120.464 62.944V61.158ZM141.03 50.138C143.411 50.138 145.235 50.7333 146.502 51.924C147.769 53.1147 148.402 55.0273 148.402 57.662V71H144.412V58.232C144.412 55.04 143.006 53.444 140.194 53.444C138.091 53.444 136.647 54.0647 135.862 55.306C135.077 56.5473 134.684 58.3333 134.684 60.664V71H130.656V50.518H133.848L134.418 53.254H134.646C135.305 52.19 136.204 51.4047 137.344 50.898C138.509 50.3913 139.738 50.138 141.03 50.138ZM158.582 42.12V56.56C158.582 57.0667 158.556 57.6747 158.506 58.384C158.455 59.0933 158.417 59.7267 158.392 60.284H158.506C158.784 59.904 159.164 59.41 159.646 58.802C160.152 58.1687 160.596 57.6493 160.976 57.244L167.246 50.518H171.92L163.674 59.296L172.452 71H167.702L160.938 61.842L158.582 63.818V71H154.592V42.12H158.582ZM182.573 50.518H186.905L191.161 62.146C191.49 63.0327 191.769 63.894 191.997 64.73C192.25 65.5407 192.44 66.3387 192.567 67.124H192.719C192.846 66.4653 193.036 65.6927 193.289 64.806C193.568 63.9193 193.872 63.02 194.201 62.108L198.229 50.518H202.561L193.783 73.774C193.048 75.75 192.06 77.2953 190.819 78.41C189.603 79.55 188.007 80.12 186.031 80.12C185.398 80.12 184.853 80.082 184.397 80.006C183.941 79.9553 183.548 79.892 183.219 79.816V76.624C183.472 76.6747 183.802 76.7253 184.207 76.776C184.612 76.8267 185.03 76.852 185.461 76.852C186.626 76.852 187.564 76.51 188.273 75.826C188.982 75.1673 189.54 74.2933 189.945 73.204L190.781 71L182.573 50.518ZM223.778 60.74C223.778 64.1347 222.904 66.7567 221.156 68.606C219.408 70.4553 217.052 71.38 214.088 71.38C212.239 71.38 210.592 70.962 209.148 70.126C207.73 69.29 206.602 68.0867 205.766 66.516C204.956 64.92 204.55 62.9947 204.55 60.74C204.55 57.3453 205.412 54.736 207.134 52.912C208.857 51.0627 211.213 50.138 214.202 50.138C216.077 50.138 217.724 50.556 219.142 51.392C220.586 52.2027 221.714 53.3933 222.524 54.964C223.36 56.5347 223.778 58.46 223.778 60.74ZM208.692 60.74C208.692 63.0453 209.123 64.844 209.984 66.136C210.871 67.428 212.264 68.074 214.164 68.074C216.064 68.074 217.445 67.428 218.306 66.136C219.193 64.844 219.636 63.0453 219.636 60.74C219.636 58.4093 219.193 56.6233 218.306 55.382C217.42 54.1153 216.026 53.482 214.126 53.482C212.226 53.482 210.846 54.1153 209.984 55.382C209.123 56.6233 208.692 58.4093 208.692 60.74ZM246.516 50.518V71H243.286L242.716 68.302H242.526C241.868 69.366 240.956 70.1513 239.79 70.658C238.625 71.1393 237.396 71.38 236.104 71.38C233.698 71.38 231.861 70.7847 230.594 69.594C229.328 68.4033 228.694 66.516 228.694 63.932V50.518H232.76V63.324C232.76 66.4907 234.141 68.074 236.902 68.074C239.005 68.074 240.462 67.4533 241.272 66.212C242.083 64.9707 242.488 63.1973 242.488 60.892V50.518H246.516Z" fill="#7C8188"/>
</g>
<defs>
<filter id="filter0_d" x="56.8281" y="40.12" width="193.688" height="46" filterUnits="userSpaceOnUse" color-interpolation-filters="sRGB">
<feFlood flood-opacity="0" result="BackgroundImageFix"/>
<feColorMatrix in="SourceAlpha" type="matrix" values="0 0 0 0 0 0 0 0 0 0 0 0 0 0 0 0 0 0 127 0"/>
<feOffset dy="2"/>
<feGaussianBlur stdDeviation="2"/>
<feColorMatrix type="matrix" values="0 0 0 0 0 0 0 0 0 0 0 0 0 0 0 0 0 0 0.25 0"/>
<feBlend mode="normal" in2="BackgroundImageFix" result="effect1_dropShadow"/>
<feBlend mode="normal" in="SourceGraphic" in2="effect1_dropShadow" result="shape"/>
</filter>
</defs>
</svg>
